<svg xmlns="http://www.w3.org/2000/svg" id="Layer_1" x="0" y="0" version="1.1" viewBox="0 0 453 121" xml:space="preserve">
  <g id="Layer_2_1_">
    <g id="Layer_1-2">
      <path d="M301 19h-13.5c-1.3 0-2.4.6-3.1 1.7l-48.9 76.6c-.7 1.1-.4 2.5.7 3.1.4.2.8.4 1.2.4h14.3c.8 0 1.5-.4 1.9-1L285 50.9v47.6c0 1.3 1 2.3 2.3 2.3H301c1.3 0 2.3-1 2.3-2.3V21.3c-.1-1.3-1.1-2.3-2.3-2.3M212.5 19h-14.2c-.8 0-1.5.4-1.9 1l-15.6 24.5-14.2-22.3-1.4-2.2c-.4-.6-1.1-1-1.9-1H149c-1.3 0-2.3 1-2.3 2.3 0 .4.1.9.4 1.2l17.2 27 6.6 10.4L147 97.3c-.7 1.1-.4 2.5.7 3.1.4.2.8.4 1.2.4h14.3c.8 0 1.5-.4 1.9-1l49.4-77.3c.7-1.1.4-2.5-.7-3.1-.4-.3-.8-.4-1.3-.4M362 19h13.5c1.3 0 2.4.6 3.1 1.7l48.9 76.6c.7 1.1.4 2.5-.7 3.1-.4.2-.8.4-1.2.4h-14.3c-.8 0-1.5-.4-1.9-1l-31.4-49v47.7c0 1.3-1 2.3-2.3 2.3H362c-1.3 0-2.3-1-2.3-2.3V21.3c0-1.3 1-2.3 2.3-2.3M409.6 35.7V21.3c0-1.3 1-2.3 2.3-2.3h13.7c1.3 0 2.3 1 2.3 2.3v36.2c0 1.3-1 2.3-2.3 2.3-.8 0-1.5-.4-1.9-1l-13.5-21.1c-.4-.6-.6-1.3-.6-2M66.8 61.4l-1-1.5 23.9-37.4c.7-1.1.4-2.5-.7-3.1-.4-.2-.8-.4-1.2-.4H73.6c-.8 0-1.5.4-1.9 1L22.4 97.3c-.7 1.1-.4 2.5.7 3.1.4.2.8.4 1.2.4h14.3c.8 0 1.5-.4 1.9-1l15.6-24.5 8.6 13.4 7.1 11.1c.4.6 1.1 1 1.9 1H88c1.3 0 2.3-1 2.3-2.3 0-.4-.1-.9-.4-1.2L66.8 61.4zM40.3 35.7V21.3c0-1.3-1-2.3-2.3-2.3H24.3C23 19 22 20 22 21.3v36.2c0 1.3 1 2.3 2.3 2.3.8 0 1.5-.4 1.9-1l13.5-21.1c.4-.6.6-1.3.6-2" class="st0"/>
    </g>
  </g>
</svg>
